<svg xmlns="http://www.w3.org/2000/svg" viewBox="0 0 50 50"><g fill="none" stroke-width="2.296" stroke-linecap="round" stroke-linejoin="round" stroke-miterlimit="10"><path stroke="#F5A11A" d="M10.3 12.2V8m7.3 4.2V8m7.3 4.2V8m7.3 4.2V8m7.2 4.2V8M10.3 43.4v-4.2m7.3 4.2v-4.2m7.3 4.2v-4.2m7.3 4.2v-4.2m7.2 4.2v-4.2"/><path stroke="#F07419" d="M3 12.7h44.2M3 38.2h44.2"/><path stroke="#F5A11A" d="M48.3 41.2c0 1.8-1.5 3.2-3.3 3.2H5.5c-2 0-3.5-1.4-3.5-3.2V10.3C2 8.5 3.5 7 5.6 7H45c1.8 0 3.3 1.5 3.3 3.2v31z"/></g></svg>